<svg
		width="64"
		height="32"
		viewBox="0 0 64 32"
		fill="none"
		xmlns="http://www.w3.org/2000/svg"
>
	<path
			d="M3 15.48C3 9.59684 3 6.65528 4.82765 4.82762C6.65531 2.99997 9.59687 2.99997 15.48 2.99997H16.52C22.4031 2.99997 25.3447 2.99997 27.1723 4.82762C29 6.65528 29 9.59684 29 15.48V16.52C29 22.4031 29 25.3447 27.1723 27.1723C25.3447 29 22.4031 29 16.52 29H15.48C9.59687 29 6.65531 29 4.82765 27.1723C3 25.3447 3 22.4031 3 16.52V15.48Z"
			fill="#0077FF"
	/>
	<path
			d="M16.8226 21.8C10.9119 21.8 7.5405 17.7459 7.40002 11H10.3608C10.458 15.9513 12.6408 18.0486 14.3697 18.481V11H17.1576V15.2702C18.8649 15.0864 20.6585 13.1405 21.2636 11H24.0516C23.5869 13.6378 21.6419 15.5837 20.2587 16.3837C21.6419 17.0324 23.8572 18.7297 24.7 21.8H21.6311C20.9719 19.7459 19.3296 18.1567 17.1576 17.9405V21.8H16.8226Z"
			fill="white"
	/>
	<path
			d="M45.2349 24.1074C44.2506 24.1074 43.3557 23.8568 42.5503 23.3557C41.7629 22.8546 41.1365 22.1655 40.6711 21.2886C40.2237 20.4116 40 19.4183 40 18.3087V9.87917H43.0872V17.9597C43.0872 18.9619 43.3647 19.7763 43.9195 20.4027C44.4922 21.0291 45.217 21.3423 46.094 21.3423C46.9888 21.3423 47.7315 21.0291 48.3221 20.4027C48.9128 19.7584 49.2081 18.944 49.2081 17.9597V9.87917H52.2953V23.8389H49.9866L49.3691 21.7449C48.9217 22.4787 48.3311 23.0604 47.5973 23.4899C46.8635 23.9015 46.0761 24.1074 45.2349 24.1074Z"
			fill="black"
	/>
	<path
			d="M59.0069 23.8389H55.9197V9.87917H59.0069V23.8389ZM57.4767 7.8926C56.904 7.8926 56.4387 7.72257 56.0807 7.38253C55.7228 7.02459 55.5438 6.56821 55.5438 6.0134C55.5438 5.45859 55.7228 5.00221 56.0807 4.64427C56.4566 4.28633 56.9219 4.10736 57.4767 4.10736C58.0315 4.10736 58.4879 4.28633 58.8458 4.64427C59.2038 5.00221 59.3828 5.45859 59.3828 6.0134C59.3828 6.56821 59.2038 7.02459 58.8458 7.38253C58.4879 7.72257 58.0315 7.8926 57.4767 7.8926Z"
			fill="black"
	/>
</svg>
