<svg xmlns="http://www.w3.org/2000/svg" width="192" height="52" viewBox="0 0 192 52">
  <g fill="none" fill-rule="evenodd">
    <path fill="#000000" d="M40.8888889 43.8595333L40.8888889 21.9924444 44.1921111 21.9924444 44.1921111 23.6222222C45.4857778 22.3158889 47.461 21.5772222 49.4224444 21.5772222 54.1133333 21.5772222 57.9216667 25.3856667 57.9216667 30.0764444 57.9216667 34.7673333 54.1133333 38.5757556 49.4224444 38.5757556 47.461 38.5757556 45.3756667 37.7329111 44.1921111 36.3924111L44.1921111 43.8536 40.8888889 43.8595333zM49.3147778 24.9743333C46.4224444 24.9743333 44.1468889 27.0436667 44.1468889 30.0764444 44.1468889 33.1093333 46.4224444 35.1965333 49.3147778 35.1965333 52.2071111 35.1965333 54.4052222 32.9688889 54.4052222 30.0764444 54.4052222 27.1841111 52.2071111 24.9743333 49.3147778 24.9743333zM77.496 38.1605667L74.1927778 38.1605667 74.1927778 36.3924556C73.0093333 37.7329 70.924 38.5757889 68.9624444 38.5757889 64.2715556 38.5757889 60.4632222 34.7673333 60.4632222 30.0764444 60.4632222 25.3856667 64.2715556 21.5772222 68.9624444 21.5772222 70.924 21.5772222 72.8992222 22.3158889 74.1927778 23.6222222L74.1927778 21.9924444 77.496 21.9924444 77.496 38.1605667zM69.0701111 24.9743333C66.1778889 24.9743333 63.9796667 27.1841111 63.9796667 30.0764444 63.9796667 32.9688889 66.1778889 35.1965667 69.0701111 35.1965667 71.9625556 35.1965667 74.238 33.1093333 74.238 30.0764444 74.238 27.0436667 71.9625556 24.9743333 69.0701111 24.9743333zM108.921667 38.1605667L105.618444 38.1605667 105.618444 36.3924556C104.435 37.7329 102.349667 38.5757889 100.388111 38.5757889 95.6972222 38.5757889 91.8888889 34.7673333 91.8888889 30.0764444 91.8888889 25.3856667 95.6972222 21.5772222 100.388111 21.5772222 102.349667 21.5772222 104.324889 22.3158889 105.618444 23.6222222L105.618444 21.9924444 108.921667 21.9924444 108.921667 38.1605667zM100.495778 24.9743333C97.6035556 24.9743333 95.4053333 27.1841111 95.4053333 30.0764444 95.4053333 32.9688889 97.6035556 35.1965667 100.495778 35.1965667 103.388222 35.1965667 105.663667 33.1093333 105.663667 30.0764444 105.663667 27.0436667 103.388222 24.9743333 100.495778 24.9743333zM128.927778 15.3446667L128.927778 38.1606333 125.624444 38.1606333 125.624444 36.5307667C124.331111 37.8371778 122.355556 38.5757889 120.394444 38.5757889 115.703333 38.5757889 111.894889 34.7674444 111.894889 30.0765556 111.894889 25.3856667 115.703333 21.5772222 120.394444 21.5772222 122.355556 21.5772222 124.441111 22.4201111 125.624444 23.7606667L125.624444 15.3505556 128.927778 15.3446667zM120.502222 35.1787222C123.394444 35.1787222 125.67 33.1093333 125.67 30.0765556 125.67 27.0437778 123.394444 24.9565556 120.502222 24.9565556 117.609556 24.9565556 115.411333 27.1842222 115.411333 30.0765556 115.411333 32.9688889 117.609556 35.1787222 120.502222 35.1787222zM132.603333 38.1606L132.603333 21.9923778 135.963422 21.9923778 135.963422 38.1606 132.603333 38.1606zM134.283333 14.7777778C135.535556 14.7777778 136.552222 15.7944444 136.552222 17.0466667 136.552222 18.2987778 135.535556 19.3154444 134.283333 19.3154444 133.031111 19.3154444 132.014444 18.2987778 132.014444 17.0466667 132.014444 15.7944444 133.031111 14.7777778 134.283333 14.7777778zM142.46 40.3037C143.558889 41.3741667 145.18 42.5089333 147.516667 42.5100778 151.274444 42.5269778 152.618889 40.2041111 152.665556 37.2071222 152.665556 37.2070667 152.665556 37.2066556 152.665556 37.2066556L152.665556 36.3924111C151.482222 37.7329111 149.396667 38.5757556 147.435556 38.5757556 142.744444 38.5757556 138.936667 34.7673333 138.936667 30.0764444 138.936667 25.3856667 142.744444 21.5772222 147.435556 21.5772222 149.396667 21.5772222 151.372222 22.3158889 152.665556 23.6222222L152.665556 21.9924444 155.968889 21.9924444 155.968889 37.3125333 155.968889 37.3493778C155.826667 43.7595778 151.861111 45.9182 147.581111 45.9981556 144.438889 46.0568778 141.576667 44.3906667 140.046667 42.6141444L142.46 40.3037zM147.543333 24.9743333C144.651111 24.9743333 142.453333 27.1841111 142.453333 30.0764444 142.453333 32.9688889 144.651111 35.1965333 147.543333 35.1965333 150.435556 35.1965333 152.711111 33.1093333 152.711111 30.0764444 152.711111 27.0436667 150.435556 24.9743333 147.543333 24.9743333zM162.943333 38.1606L159.64 38.1606 159.64 21.9924444 162.943333 21.9924444 162.943333 23.1215556C163.676667 22.4318889 165.052222 21.5797778 166.958889 21.5772222 169.303333 21.5772222 171.051111 22.5633333 172.248889 24.1498889 173.557778 22.579 175.716667 21.5772222 177.915556 21.5772222 182.043333 21.5772222 184.856667 24.364 184.856667 28.7072222L184.856667 38.1606 181.553333 38.1606 181.553333 28.7072222C181.553333 26.5972222 179.836667 24.8804444 177.726667 24.8804444 175.616667 24.8804444 173.9 26.5972222 173.9 28.7072222L173.9 38.1606 170.596667 38.1606 170.596667 28.7072222C170.596667 26.5972222 168.88 24.8804444 166.77 24.8804444 164.66 24.8804444 162.943333 26.5972222 162.943333 28.7072222L162.943333 38.1606zM91.2616667 25.1714444L89.2664444 25.1714444C86.1044444 25.1707778 84.4722222 27.5051111 84.4722222 30.2226667 84.4722222 31.3225556 84.4754444 38.1474222 84.4754444 38.1606111L81.1668889 38.1606111 81.1668889 21.9924444 84.4754444 21.9924444 84.4754444 24.1245556C85.6423333 22.7921111 86.7667778 21.9924444 89.2664444 21.9924444L91.2616667 21.9924444 91.2616667 25.1714444z"/>
    <path fill="#FF9E00" d="M25.2393333,6.75855556 C25.658,6.344 26.226,6.11111111 26.8182222,6.11111111 C27.4104444,6.11111111 27.9784444,6.344 28.3972222,6.75855556 C30.6886667,9.02666667 34.9125556,13.2063333 37.2045556,15.4744444 C38.0763333,16.3375556 38.0763333,17.7364444 37.2045556,18.5995556 L28.3972222,27.3154444 C27.9784444,27.73 27.4104444,27.9628889 26.8182222,27.9628889 C26.226,27.9628889 25.658,27.73 25.2393333,27.3154444 C22.9473333,25.0477778 18.7234444,20.8676667 16.4319333,18.5995556 C16.0130889,18.1852222 15.7777778,17.6231111 15.7777778,17.037 C15.7777778,16.4508889 16.0130889,15.8887778 16.4319333,15.4744444 C18.7234444,13.2063333 22.9473333,9.02666667 25.2393333,6.75855556 Z"/>
    <path fill="#005FF9" d="M16.4615111,6.75855556 C16.8802222,6.344 17.4482111,6.11111111 18.0404556,6.11111111 C18.6326667,6.11111111 19.2006667,6.344 19.6194444,6.75855556 C21.9108889,9.02666667 26.1347778,13.2063333 28.4267778,15.4744444 C29.2985556,16.3375556 29.2985556,17.7364444 28.4267778,18.5995556 L19.6194444,27.3154444 C19.2006667,27.73 18.6326667,27.9628889 18.0404556,27.9628889 C17.4482111,27.9628889 16.8802222,27.73 16.4615111,27.3154444 C14.1695667,25.0477778 9.94564444,20.8676667 7.65415556,18.5995556 C7.23531111,18.1852222 7,17.6231111 7,17.037 C7,16.4508889 7.23531111,15.8887778 7.65415556,15.4744444 C9.94564444,13.2063333 14.1695667,9.02666667 16.4615111,6.75855556 Z"/>
    <path fill="#002277" d="M22.4292019,9.53936417 C24.5252463,11.6136649 26.9029688,13.9665177 28.4267778,15.4744444 C29.2985556,16.3375556 29.2985556,17.7364444 28.4267778,18.5995556 L22.4292154,24.5348467 C20.3330411,22.4605416 17.9554205,20.1074855 16.4319333,18.5995556 C16.0130889,18.1852222 15.7777778,17.6231111 15.7777778,17.037 C15.7777778,16.4508889 16.0130889,15.8887778 16.4319333,15.4744444 C17.9554172,13.9665177 20.3330309,11.6136649 22.4292019,9.53936417 Z"/>
  </g>
</svg>
